<svg width="564" height="119" viewBox="0 0 564 119" fill="none" xmlns="http://www.w3.org/2000/svg">
<path d="M532.85 95.625C511.913 95.625 499.6 82.6875 499.6 61C499.6 39.4375 512.163 25.75 531.975 25.75C550.975 25.75 563.725 38.75 563.725 56.9375C563.725 62 560.85 64.875 555.788 64.875H517.538V65.6875C517.538 75.625 523.538 82.125 532.788 82.125C539.475 82.125 543.85 79.875 548.788 74.0625C550.725 72.0625 552.35 71.375 554.725 71.375C558.663 71.375 561.85 73.875 561.85 78.0625C561.85 79.5 561.413 81 560.6 82.5C556.163 90.75 545.788 95.625 532.85 95.625ZM517.725 53.6875H546.163C545.788 44.9375 540.163 39.25 532.163 39.25C524.163 39.25 518.35 45.125 517.725 53.6875Z" fill="black"/>
<path d="M458.613 95.5C451.613 95.5 447.863 92.6875 445.425 86.1875L427.988 39.4375C427.425 37.8125 426.988 35.875 426.988 34C426.988 29.0625 430.925 25.8125 436.113 25.8125C440.55 25.8125 443.488 28.1875 444.863 33.125L458.425 78.0625H458.8L472.363 32.9375C473.613 28.125 476.675 25.8125 480.925 25.8125C485.988 25.8125 489.8 29.3125 489.8 33.9375C489.8 35.625 489.363 37.5 488.8 39.0625L471.363 86.1875C469.05 92.625 465.238 95.5 458.613 95.5Z" fill="black"/>
<path d="M375.625 95.25C362.875 95.25 353.188 87 353.188 74.9375C353.188 62.75 362.562 55.6875 379.312 54.6875L396.188 53.6875V49.25C396.188 43 391.812 39.375 384.938 39.375C379.375 39.375 376 41.1875 371.938 46.4375C369.938 48.6875 367.625 49.8125 364.688 49.8125C360.25 49.8125 357.062 46.9375 357.062 42.8125C357.062 41.375 357.375 40.0625 358 38.6875C361.125 30.6875 371.875 25.75 385.75 25.75C402.938 25.75 414.125 34.625 414.125 48.125V86.3125C414.125 92.375 410.438 95.5 405.25 95.5C400.312 95.5 396.875 92.75 396.5 87.375V83.9375H396.125C392.375 91.0625 384 95.25 375.625 95.25ZM381.625 82.0625C389.625 82.0625 396.188 76.875 396.188 69.625V64.75L382.062 65.625C375.25 66.125 371.375 69.1875 371.375 73.9375C371.375 78.9375 375.5 82.0625 381.625 82.0625Z" fill="black"/>
<path d="M321.575 95.5C316.262 95.5 312.45 92.25 312.45 86V12.1875C312.45 5.9375 316.262 2.625 321.575 2.625C326.95 2.625 330.7 5.9375 330.7 12.1875V86C330.7 92.25 326.95 95.5 321.575 95.5Z" fill="black"/>
<path d="M232.337 118.062C227.025 118.062 223.212 114.812 223.212 108.562V35.1875C223.212 29.0625 226.962 25.8125 232.212 25.8125C237.462 25.8125 241.212 29.0625 241.212 35.25V38.875H241.587C245.212 31 252.65 26.125 262.337 26.125C279.337 26.125 289.775 39.0625 289.775 60.6875C289.775 82.25 279.4 95.25 262.65 95.25C252.9 95.25 245.4 90.5 241.837 82.9375H241.462V108.562C241.462 114.812 237.712 118.062 232.337 118.062ZM256.212 80.5625C265.337 80.5625 271.087 72.875 271.087 60.6875C271.087 48.5625 265.337 40.75 256.212 40.75C247.275 40.75 241.4 48.6875 241.4 60.6875C241.4 72.8125 247.275 80.5625 256.212 80.5625Z" fill="black"/>
<path d="M171.725 95.625C156.35 95.625 146.1 90.125 142.913 82.25C142.475 81.0625 142.225 79.875 142.225 78.875C142.225 74.6875 145.35 71.875 149.6 71.875C152.538 71.875 155.038 73.1875 157.538 76C161.1 80.6875 165.225 82.8125 172.163 82.8125C178.788 82.8125 183.1 80.0625 183.1 75.625C183.1 72 180.788 70.0625 174.225 68.625L162.975 66.25C149.85 63.4375 143.225 56.75 143.225 46.8125C143.225 34 154.288 25.75 171.663 25.75C185.538 25.75 195.725 32.0625 197.913 39.625C198.163 40.5625 198.35 41.4375 198.35 42.3125C198.35 46 196.038 48.5625 191.35 48.5625C188.975 48.5625 186.35 47.6875 184.725 45.75C181.538 41.6875 177.913 38.5625 171.35 38.5625C165.163 38.5625 160.85 41.5 160.85 45.8125C160.85 49.3125 163.475 51.625 170.163 53.0625L181.225 55.4375C195.475 58.4375 201.35 63.6875 201.35 73.6875C201.35 87 189.413 95.625 171.725 95.625Z" fill="black"/>
<path d="M110.3 18.875C104.8 18.875 100.55 14.6875 100.55 9.4375C100.55 4.125 104.8 0 110.3 0C115.8 0 120.05 4.125 120.05 9.4375C120.05 14.6875 115.8 18.875 110.3 18.875ZM110.3 95.5C104.613 95.5 101.175 91.9375 101.175 86V35.375C101.175 29.4375 104.613 25.8125 110.3 25.8125C115.925 25.8125 119.425 29.4375 119.425 35.375V86C119.425 91.9375 115.925 95.5 110.3 95.5Z" fill="black"/>
<path d="M9.4375 94.1875C3.5 94.1875 0 90.5625 0 84.3125V13.8125C0 7.625 3.5 4 9.4375 4H34.4375C61.5 4 77.4375 20.125 77.4375 48.75C77.4375 77.375 61.5 94.1875 34.4375 94.1875H9.4375ZM18.875 78.5625H32.1875C49.0625 78.5625 58.1875 68.3125 58.1875 48.8125C58.1875 29.9375 48.8125 19.5625 32.1875 19.5625H18.875V78.5625Z" fill="black"/>
</svg>
